<?xml version="1.0" encoding="utf-8"?>
<!-- Generator: Adobe Illustrator 23.0.1, SVG Export Plug-In . SVG Version: 6.00 Build 0)  -->
<svg version="1.1" id="Ebene_1" xmlns="http://www.w3.org/2000/svg" xmlns:xlink="http://www.w3.org/1999/xlink" x="0px" y="0px"
	 viewBox="0 0 24 24" style="enable-background:new 0 0 24 24;" xml:space="preserve">
<path d="M18,13c0,3.3-2.7,6-6,6s-6-2.7-6-6s2.7-6,6-6v4l5-5l-5-5v4c-4.4,0-8,3.6-8,8s3.6,8,8,8s8-3.6,8-8H18z M10.9,16v-4.3h-0.1
	L9,12.4V13l1-0.3V16H10.9z M14.3,11.8c-0.2-0.1-0.4-0.1-0.6-0.1s-0.4,0-0.6,0.1s-0.3,0.2-0.4,0.3s-0.2,0.3-0.3,0.6s-0.1,0.5-0.1,0.8
	v0.7c0,0.3,0,0.6,0.1,0.8s0.2,0.4,0.3,0.6s0.3,0.3,0.5,0.3s0.4,0.1,0.6,0.1s0.4,0,0.6-0.1s0.3-0.2,0.4-0.3s0.2-0.3,0.3-0.6
	s0.1-0.5,0.1-0.8v-0.7c0-0.3,0-0.6-0.1-0.8s-0.2-0.4-0.3-0.6S14.5,11.9,14.3,11.8z M14.3,14.4c0,0.2,0,0.4,0,0.5s-0.1,0.2-0.1,0.3
	s-0.1,0.1-0.2,0.2s-0.2,0.1-0.2,0.1s-0.2,0-0.2-0.1s-0.1-0.1-0.2-0.2s-0.1-0.2-0.1-0.3s0-0.3,0-0.5v-1c0-0.2,0-0.4,0-0.5
	s0.1-0.2,0.1-0.3s0.1-0.1,0.2-0.2s0.2-0.1,0.2-0.1s0.2,0,0.2,0.1s0.1,0.1,0.2,0.2s0.1,0.2,0.1,0.3s0,0.3,0,0.5L14.3,14.4L14.3,14.4z
	"/>
</svg>
