<?xml version="1.0" encoding="utf-8"?>
<!-- Generator: Adobe Illustrator 23.0.1, SVG Export Plug-In . SVG Version: 6.00 Build 0)  -->
<svg version="1.1" id="Ebene_1" xmlns="http://www.w3.org/2000/svg" xmlns:xlink="http://www.w3.org/1999/xlink" x="0px" y="0px"
	 viewBox="0 0 24 24" style="enable-background:new 0 0 24 24;" xml:space="preserve">
<style type="text/css">
	.st0{opacity:0.3;enable-background:new    ;}
</style>
<path class="st0" d="M12,15.4l-3.8,2.3l1-4.3l-3.3-2.9l4.4-0.4l1.7-4l1.7,4l4.4,0.4l-3.3,2.9l1,4.3L12,15.4z"/>
<path d="M22,9.2l-7.2-0.6L12,2L9.2,8.6L2,9.2L7.5,14l-1.6,7l6.2-3.7l6.2,3.7l-1.6-7L22,9.2z M12,15.4l-3.8,2.3l1-4.3l-3.3-2.9
	l4.4-0.4l1.7-4l1.7,4l4.4,0.4l-3.3,2.9l1,4.3L12,15.4z"/>
</svg>
