<?xml version="1.0" encoding="utf-8"?>
<!-- Generator: Adobe Illustrator 23.0.1, SVG Export Plug-In . SVG Version: 6.00 Build 0)  -->
<svg version="1.1" id="Ebene_1" xmlns="http://www.w3.org/2000/svg" xmlns:xlink="http://www.w3.org/1999/xlink" x="0px" y="0px"
	 viewBox="0 0 24 24" style="enable-background:new 0 0 24 24;" xml:space="preserve">
<style type="text/css">
	.st0{opacity:0.3;enable-background:new    ;}
</style>
<circle class="st0" cx="16" cy="17" r="1"/>
<path d="M3,10h12v2H3V10z M3,14h8v2H3V14z M3,6h12v2H3V6z M17,14.2c-0.3-0.1-0.6-0.2-1-0.2c-1.7,0-3,1.3-3,3s1.3,3,3,3s3-1.3,3-3V8
	h3V6h-5V14.2z M16,18c-0.6,0-1-0.5-1-1s0.4-1,1-1c0.5,0,1,0.5,1,1S16.5,18,16,18z"/>
</svg>
