<?xml version="1.0" encoding="utf-8"?>
<!-- Generator: Adobe Illustrator 23.0.1, SVG Export Plug-In . SVG Version: 6.00 Build 0)  -->
<svg version="1.1" id="Ebene_1" xmlns="http://www.w3.org/2000/svg" xmlns:xlink="http://www.w3.org/1999/xlink" x="0px" y="0px"
	 viewBox="0 0 24 24" style="enable-background:new 0 0 24 24;" xml:space="preserve">
<path d="M22,6h-5v8.2c-0.3-0.1-0.6-0.2-1-0.2c-1.7,0-3,1.3-3,3s1.3,3,3,3s3-1.3,3-3V8h3V6z M15,6H3v2h12V6z M15,10H3v2h12V10z
	 M11,14H3v2h8V14z M15,17c0-0.5,0.4-1,1-1c0.5,0,1,0.5,1,1s-0.5,1-1,1S15,17.5,15,17z"/>
</svg>
