<?xml version="1.0" encoding="utf-8"?>
<!-- Generator: Adobe Illustrator 23.0.1, SVG Export Plug-In . SVG Version: 6.00 Build 0)  -->
<svg version="1.1" id="Ebene_1" xmlns="http://www.w3.org/2000/svg" xmlns:xlink="http://www.w3.org/1999/xlink" x="0px" y="0px"
	 viewBox="0 0 24 24" style="enable-background:new 0 0 24 24;" xml:space="preserve">
<path d="M20,4H4C2.9,4,2,4.9,2,6v12c0,1.1,0.9,2,2,2h16c1.1,0,2-0.9,2-2V6C22,4.9,21.1,4,20,4z M20,18H4V6h16V18z M8.3,15.7
	c-1-1-1.5-2.4-1.5-3.7s0.5-2.7,1.5-3.7L7.1,7.1C5.7,8.4,5,10.2,5,12s0.7,3.6,2.1,4.9C7.1,16.9,8.3,15.7,8.3,15.7z M12,15.5
	c1.9,0,3.5-1.6,3.5-3.5S13.9,8.5,12,8.5S8.5,10.1,8.5,12S10.1,15.5,12,15.5z M12,10.5c0.8,0,1.5,0.7,1.5,1.5s-0.7,1.5-1.5,1.5
	s-1.5-0.7-1.5-1.5S11.2,10.5,12,10.5z M15.7,15.7l1.2,1.2c1.4-1.4,2-3.2,2-4.9s-0.7-3.6-2.1-4.9l-1.2,1.2c1,1,1.5,2.4,1.5,3.7
	S16.7,14.7,15.7,15.7z"/>
</svg>
