<?xml version="1.0" encoding="utf-8"?>
<!-- Generator: Adobe Illustrator 23.0.1, SVG Export Plug-In . SVG Version: 6.00 Build 0)  -->
<svg version="1.1" id="Ebene_1" xmlns="http://www.w3.org/2000/svg" xmlns:xlink="http://www.w3.org/1999/xlink" x="0px" y="0px"
	 viewBox="0 0 24 24" style="enable-background:new 0 0 24 24;" xml:space="preserve">
<path d="M22,4H2v16h20V4z M7.8,16.2l-1.4,1.4C4.8,16.1,4,14.1,4,12s0.8-4.1,2.3-5.7l1.4,1.4C6.6,8.9,6,10.5,6,12S6.6,15.1,7.8,16.2z
	 M12,16c-2.2,0-4-1.8-4-4s1.8-4,4-4s4,1.8,4,4S14.2,16,12,16z M17.7,17.7l-1.4-1.4c1.2-1.2,1.8-2.7,1.8-4.2s-0.6-3.1-1.8-4.2
	l1.4-1.4C19.2,7.9,20,9.9,20,12S19.2,16.1,17.7,17.7z M12,10c-1.1,0-2,0.9-2,2s0.9,2,2,2s2-0.9,2-2S13.1,10,12,10z"/>
</svg>
